<svg xmlns="http://www.w3.org/2000/svg" width="86.699" height="41.67" viewBox="0 0 86.699 41.67">
  <g id="Group_1858" data-name="Group 1858" transform="translate(-15.1 -33.3)">
    <path id="Path_12286" data-name="Path 12286" d="M99.933,69.9H91.226a32.822,32.822,0,0,0-65.553,0H16.966a1.866,1.866,0,0,0,0,3.732H99.933a1.913,1.913,0,0,0,1.866-1.866A1.832,1.832,0,0,0,99.933,69.9ZM75.18,58.951a1.913,1.913,0,0,1-1.866-1.866c0-4.478-5.722-5.6-5.971-5.6a1.83,1.83,0,1,1,.622-3.607c3.11.5,8.956,3.11,8.956,9.2A1.669,1.669,0,0,1,75.18,58.951Z" transform="translate(0 1.341)" fill="#90abf9"/>
    <path id="Path_12287" data-name="Path 12287" d="M56.546,38.649a5.393,5.393,0,0,0-1.617-3.732A5.454,5.454,0,0,0,45.6,38.649a40.323,40.323,0,0,1,10.946,0Z" transform="translate(7.438 0)" fill="#90abf9"/>
  </g>
</svg>
