<svg xmlns="http://www.w3.org/2000/svg" xmlns:xlink="http://www.w3.org/1999/xlink" width="375" height="812" viewBox="0 0 375 812">
  <defs>
    <filter id="Path_4613" x="-18" y="-14" width="411" height="848" filterUnits="userSpaceOnUse">
      <feOffset dy="3" input="SourceAlpha"/>
      <feGaussianBlur stdDeviation="6" result="blur"/>
      <feFlood flood-opacity="0.161"/>
      <feComposite operator="in" in2="blur"/>
      <feComposite in="SourceGraphic"/>
    </filter>
    <clipPath id="clip-path">
      <path id="Path_13" data-name="Path 13" d="M375-74v37H337.433a37.556,37.556,0,0,0,37.561-37ZM0-74H0A37.553,37.553,0,0,0,37.565-37H0Z" transform="translate(0 74)" clip-rule="evenodd"/>
    </clipPath>
    <clipPath id="clip-path-2">
      <path id="Path_12" data-name="Path 12" d="M0-812H375v-812H0Z" transform="translate(0 1624)"/>
    </clipPath>
    <clipPath id="clip-Welcome_screen">
      <rect width="375" height="812"/>
    </clipPath>
  </defs>
  <g id="Welcome_screen" data-name="Welcome screen" clip-path="url(#clip-Welcome_screen)">
    <rect width="375" height="812" fill="#fff"/>
    <g transform="matrix(1, 0, 0, 1, 0, 0)" filter="url(#Path_4613)">
      <path id="Path_4613-2" data-name="Path 4613" d="M0,0H375V812H0Z" transform="translate(0 1)" fill="#fff"/>
    </g>
    <g id="iPhoneX-home" transform="translate(1 776)">
      <rect id="home" width="99.999" height="4" rx="2" transform="translate(137.499 23)"/>
      <g id="bottom" transform="translate(0 0)" clip-path="url(#clip-path)">
        <g id="Group_55" data-name="Group 55" transform="translate(0 -775)" clip-path="url(#clip-path-2)">
          <path id="Path_11" data-name="Path 11" d="M-5-79H375v42H-5Z" transform="translate(2.5 851.5)"/>
        </g>
      </g>
    </g>
    <text id="Flight_Search" data-name="Flight Search" transform="translate(188 499)" fill="#716e6e" font-size="22" font-family="Helvetica"><tspan x="-114.125" y="0">Welcome to BetterMeal</tspan></text>
    <path id="Path_8038" data-name="Path 8038" d="M8.2,0H326.8A8.1,8.1,0,0,1,335,8V42a8.1,8.1,0,0,1-8.2,8H8.2A8.1,8.1,0,0,1,0,42V8A8.1,8.1,0,0,1,8.2,0Z" transform="translate(20 642)" fill="#2074dc"/>
    <text id="Flight_Search-2" data-name="Flight Search" transform="translate(188 532)" fill="#8b8b8b" font-size="16" font-family="Helvetica"><tspan x="-65.52" y="0">Your AI Nutritionist</tspan></text>
    <text id="Forgot_password_" data-name="Forgot password?" transform="translate(244 673)" fill="#fff" font-size="18" font-family="OpenSans-Bold, Open Sans" font-weight="700" letter-spacing="0.05em"><tspan x="-111.771" y="0">Get Started</tspan></text>
    <text id="Forgot_password_2" data-name="Forgot password?" transform="translate(220 730)" fill="#2074dc" font-size="18" font-family="OpenSans-Bold, Open Sans" font-weight="700" letter-spacing="0.05em"><tspan x="-64.805" y="0">Sign in</tspan></text>
    <g id="Group_1641" data-name="Group 1641" transform="translate(0 1)">
      <g id="Boost_your_inmune_system-bro" data-name="Boost your inmune system-bro" transform="translate(46.057 200.207)">
        <g id="freepik--background-simple--inject-51" transform="translate(28.943 29.373)" opacity="0.565">
          <path id="Path_8047" data-name="Path 8047" d="M181.33,50.433s-37.236-13.24-73.787,7.842S52.563,121.2,36.7,154.739s-6.732,67.6,21.182,83.154,46.877-7.372,86.023-8.5,49.671,4.5,82.154-17.633,38.356-74.337,12.73-112.958S181.33,50.433,181.33,50.433Z" transform="translate(-28.943 -46.329)" fill="#fff"/>
          <path id="Path_8048" data-name="Path 8048" d="M181.33,50.433s-37.236-13.24-73.787,7.842S52.563,121.2,36.7,154.739s-6.732,67.6,21.182,83.154,46.877-7.372,86.023-8.5,49.671,4.5,82.154-17.633,38.356-74.337,12.73-112.958S181.33,50.433,181.33,50.433Z" transform="translate(-28.943 -46.329)" fill="#56cad2" opacity="0.233"/>
        </g>
        <g id="freepik--Shield--inject-51" transform="translate(89.514 93.025)">
          <path id="Path_8049" data-name="Path 8049" d="M251.527,189.109c-16.994-5.593-50.921-15.4-50.981-15.429,0,0-33.413,9.836-50.416,15.429,5.208,25.68,6.942,51.366,12.15,77.051,11.7,8.242,38.6,25.106,38.806,24.956.255.185,26.62-16.714,38.311-24.956C244.57,240.475,246.3,214.79,251.527,189.109Z" transform="translate(-150.13 -173.68)" fill="none" stroke="#fff" stroke-linecap="round" stroke-linejoin="round" stroke-width="5"/>
          <path id="Path_8050" data-name="Path 8050" d="M251.482,203.52c-14.6-4.8-43.729-13.23-43.8-13.25s-28.694,8.447-43.294,13.25c4.468,22.057,5.963,44.114,10.431,66.175,10.046,7.077,33.153,21.557,33.328,21.432.22.155,22.861-14.36,32.9-21.432C245.52,247.614,247.014,225.577,251.482,203.52Z" transform="translate(-157.263 -181.978)" fill="none"/>
          <path id="Path_8051" data-name="Path 8051" d="M174.821,282.955l32.808-30.908L164.39,216.78Z" transform="translate(-157.263 -195.238)" fill="#bfbfbf"/>
          <path id="Path_8052" data-name="Path 8052" d="M283.517,283.585,249.17,252.047l44.718-35.267Z" transform="translate(-199.669 -195.238)" fill="#bfbfbf"/>
          <path id="Path_8053" data-name="Path 8053" d="M207.629,238.212l43.854-34.562L207.2,190.53,164.39,203.65l42.374,34.562v.7l.435-.355.43.355Z" transform="translate(-157.263 -182.108)" fill="#dbdbdb"/>
          <path id="Path_8054" data-name="Path 8054" d="M251.55,319.283,217.638,288.15l-32.378,30.5L218.618,340.7Z" transform="translate(-167.702 -230.936)" fill="#969696"/>
        </g>
        <g id="freepik--Floor--inject-51" transform="translate(70.456 239.395)">
          <ellipse id="Ellipse_253" data-name="Ellipse 253" cx="68.474" cy="3.249" rx="68.474" ry="3.249" transform="translate(0)" fill="#d8d8d8" stroke="#263238" stroke-linecap="round" stroke-linejoin="round" stroke-width="1"/>
        </g>
        <g id="freepik--Character--inject-51" transform="translate(102.987 74.851)">
          <path id="Path_8055" data-name="Path 8055" d="M201.023,453.025s-4.413,5.133-4.413,5.853a3.659,3.659,0,0,0,.2,1.235h12.22a30.383,30.383,0,0,0,0-3.389c-.1-1.849-.2-5.033-.2-5.033a3.633,3.633,0,0,0,.615-2.259c-.21-1.025-1.434-1.235-1.744-1.235,0,0-3.119-.87-4.623.615Z" transform="translate(-186.852 -292.689)" fill="#263238" stroke="#263238" stroke-linecap="round" stroke-linejoin="round" stroke-width="1"/>
          <path id="Path_8056" data-name="Path 8056" d="M196.61,469.2a3.659,3.659,0,0,0,.2,1.235h12.22s.05-.76.045-1.849H196.895A1.645,1.645,0,0,0,196.61,469.2Z" transform="translate(-186.852 -303.016)" fill="#fff" stroke="#263238" stroke-linecap="round" stroke-linejoin="round" stroke-width="1"/>
          <line id="Line_23" data-name="Line 23" y1="3.594" x2="0.31" transform="translate(20.129 163.929)" fill="none" stroke="#263238" stroke-linecap="round" stroke-linejoin="round" stroke-width="1"/>
          <path id="Path_8057" data-name="Path 8057" d="M292.189,453.025s4.418,5.133,4.418,5.853a3.658,3.658,0,0,1-.2,1.235h-12.22a30.38,30.38,0,0,1,0-3.389c.1-1.849.2-5.033.2-5.033a3.659,3.659,0,0,1-.62-2.259c.2-1.025,1.439-1.235,1.749-1.235,0,0,3.119-.87,4.618.615Z" transform="translate(-230.43 -292.689)" fill="#263238" stroke="#263238" stroke-linecap="round" stroke-linejoin="round" stroke-width="1"/>
          <path id="Path_8058" data-name="Path 8058" d="M297.005,469.2a3.658,3.658,0,0,1-.2,1.235H284.58s-.055-.76-.05-1.849h12.19A1.645,1.645,0,0,1,297.005,469.2Z" transform="translate(-230.828 -303.016)" fill="#fff" stroke="#263238" stroke-linecap="round" stroke-linejoin="round" stroke-width="1"/>
          <line id="Line_24" data-name="Line 24" x1="0.305" y1="3.594" transform="translate(55.496 163.929)" fill="none" stroke="#263238" stroke-linecap="round" stroke-linejoin="round" stroke-width="1"/>
          <path id="Path_8059" data-name="Path 8059" d="M236.937,205.67c-2.094-2-3.034-2.1-7.337-3.864a47.113,47.113,0,0,0-6.737-2.319c-1.529-.235-3.059-.455-4.593-.675a14.206,14.206,0,0,0-3.389-.5,55.542,55.542,0,0,0-7.237,1.185,47.483,47.483,0,0,0-6.732,2.319c-4.3,1.764-6.4,1.874-8.5,3.864s-14.9,16.459-14.794,18.423,3.2,3.974,5.628,3,13.69-13.46,13.69-13.46,5.863,13.55,5.863,16.309a9.257,9.257,0,0,1-.77,4.3c-.22.55-4.638,12.585-5.963,17.993a77.643,77.643,0,0,0-1.764,20.087,61.838,61.838,0,0,1-.9,14.779,50.535,50.535,0,0,0-1.654,12.915c0,6.5.33,24.946.33,25.385V328.1l5.628-.44,4.2-20.752,6.5-26.935,6.4-23.286.435-.035.435.035,6.4,23.286,6.5,26.935,4.213,20.732,5.633.44V325.43c0-.44.33-18.873.33-25.386a50.535,50.535,0,0,0-1.644-12.93,61.837,61.837,0,0,1-.885-14.794,77.65,77.65,0,0,0-1.769-20.088c-1.329-5.408-6.9-17.438-7.117-17.993a9.247,9.247,0,0,1-.775-4.3c0-2.759,5.853-16.294,5.853-16.294s12.415,12.5,14.844,13.465a3.277,3.277,0,0,0,4.473-3C251.847,222.109,239.036,207.644,236.937,205.67Z" transform="translate(-177.352 -167.818)" fill="#fff" stroke="#263238" stroke-linecap="round" stroke-linejoin="round" stroke-width="1"/>
          <path id="Path_8060" data-name="Path 8060" d="M250.363,307.465a77.649,77.649,0,0,0-1.769-20.088c-1.329-5.408-6.9-17.438-7.117-17.993-.08-.2-.21-.465-.335-.855H216.491c-.13.39-.255.655-.335.855-.22.555-4.638,12.585-5.963,17.993a77.644,77.644,0,0,0-1.764,20.088,61.838,61.838,0,0,1-.885,14.779,50.535,50.535,0,0,0-1.654,12.915c0,6.5.33,24.946.33,25.385v2.684l5.628-.44,4.2-20.752,6.5-26.935,6.4-23.286.435-.035.435.035,6.4,23.286,6.5,26.935,4.213,20.732,5.633.44v-2.649c0-.44.33-18.873.33-25.386a50.536,50.536,0,0,0-1.644-12.93,61.836,61.836,0,0,1-.885-14.779Z" transform="translate(-191.493 -202.949)" fill="#247bdc" stroke="#262626" stroke-linecap="round" stroke-linejoin="round" stroke-width="1"/>
          <path id="Path_8061" data-name="Path 8061" d="M251.613,219.508l-6.023-3.029-2.849-16.339-1.145-.17,1.344,12.405H227.057l1.285-11.891c-.295.08-.7.2-1.21.36l-2.724,15.634L220.2,219.2c1,2.5,2.174,5.5,2.969,7.887h25.61C249.534,224.771,250.639,221.922,251.613,219.508Z" transform="translate(-198.651 -168.656)" fill="#57cad2" stroke="#263238" stroke-linecap="round" stroke-linejoin="round" stroke-width="1"/>
          <path id="Path_8062" data-name="Path 8062" d="M284.624,226.459,282,223.97l1.564,4.528Z" transform="translate(-229.563 -180.66)" fill="#263238" stroke="#263238" stroke-linecap="round" stroke-linejoin="round" stroke-width="1"/>
          <path id="Path_8063" data-name="Path 8063" d="M216.27,226.629l2.309-2.319-1.534,4.358Z" transform="translate(-196.685 -180.831)" fill="#263238" stroke="#263238" stroke-linecap="round" stroke-linejoin="round" stroke-width="1"/>
          <path id="Path_8064" data-name="Path 8064" d="M206.27,434.89c.075,4.793.14,8.682.14,8.882v2.669l5.628-.44,2.244-11.091Z" transform="translate(-191.684 -286.16)" fill="#fff" stroke="#263238" stroke-linecap="round" stroke-linejoin="round" stroke-width="1"/>
          <path id="Path_8065" data-name="Path 8065" d="M205.44,452.661v-2.054a3.109,3.109,0,0,1,3.289-3.389c2.669-.1,3.044,4.858,3.164,5.368Z" transform="translate(-191.268 -292.326)" fill="#263238" stroke="#263238" stroke-linecap="round" stroke-linejoin="round" stroke-width="1"/>
          <path id="Path_8066" data-name="Path 8066" d="M283.45,434.48l2.284,11.3,5.633.44v-2.649c0-.2.065-4.2.145-9.087Z" transform="translate(-230.288 -285.955)" fill="#fff" stroke="#263238" stroke-linecap="round" stroke-linejoin="round" stroke-width="1"/>
          <path id="Path_8067" data-name="Path 8067" d="M294.713,452.661v-2.054a3.1,3.1,0,0,0-3.284-3.389c-2.669-.1-2.794,5-2.919,5.538Z" transform="translate(-232.819 -292.326)" fill="#263238" stroke="#263238" stroke-linecap="round" stroke-linejoin="round" stroke-width="1"/>
          <path id="Path_8068" data-name="Path 8068" d="M212.083,458.69h-5.168a.365.365,0,0,1-.365-.365h0a.365.365,0,0,1,.365-.365h5.168a.365.365,0,0,1,.365.365h0a.365.365,0,0,1-.365.365Z" transform="translate(-191.824 -297.699)" fill="#fff" stroke="#263238" stroke-linecap="round" stroke-linejoin="round" stroke-width="0.5"/>
          <path id="Path_8069" data-name="Path 8069" d="M210.788,460.38h-5.153a.365.365,0,0,1-.365-.365h0a.365.365,0,0,1,.365-.365H210.8a.365.365,0,0,1,.365.365h0a.365.365,0,0,1-.38.365Z" transform="translate(-191.183 -298.544)" fill="#fff" stroke="#263238" stroke-linecap="round" stroke-linejoin="round" stroke-width="0.5"/>
          <path id="Path_8070" data-name="Path 8070" d="M209.463,462.07h-5.168a.365.365,0,0,1-.365-.365h0a.36.36,0,0,1,.365-.365h5.168a.365.365,0,0,1,.365.365h0a.365.365,0,0,1-.365.365Z" transform="translate(-190.513 -299.39)" fill="#fff" stroke="#263238" stroke-linecap="round" stroke-linejoin="round" stroke-width="0.5"/>
          <path id="Path_8071" data-name="Path 8071" d="M208.143,463.76h-5.168a.365.365,0,0,1-.365-.365h0a.365.365,0,0,1,.365-.365h5.168a.36.36,0,0,1,.365.365h0a.365.365,0,0,1-.365.365Z" transform="translate(-189.853 -300.235)" fill="#fff" stroke="#263238" stroke-linecap="round" stroke-linejoin="round" stroke-width="0.5"/>
          <path id="Path_8072" data-name="Path 8072" d="M288.515,458.69h5.168a.365.365,0,0,0,.365-.365h0a.365.365,0,0,0-.365-.365h-5.168a.365.365,0,0,0-.365.365h0a.365.365,0,0,0,.365.365Z" transform="translate(-232.639 -297.699)" fill="#fff" stroke="#263238" stroke-linecap="round" stroke-linejoin="round" stroke-width="0.5"/>
          <path id="Path_8073" data-name="Path 8073" d="M289.825,460.38H295a.365.365,0,0,0,.365-.365h0a.365.365,0,0,0-.365-.365h-5.173a.365.365,0,0,0-.365.365h0a.365.365,0,0,0,.365.365Z" transform="translate(-233.294 -298.544)" fill="#fff" stroke="#263238" stroke-linecap="round" stroke-linejoin="round" stroke-width="0.5"/>
          <path id="Path_8074" data-name="Path 8074" d="M291.145,462.07h5.168a.365.365,0,0,0,.365-.365h0a.365.365,0,0,0-.365-.365h-5.168a.36.36,0,0,0-.365.365h0a.365.365,0,0,0,.365.365Z" transform="translate(-233.954 -299.39)" fill="#fff" stroke="#263238" stroke-linecap="round" stroke-linejoin="round" stroke-width="0.5"/>
          <path id="Path_8075" data-name="Path 8075" d="M292.455,463.76h5.168a.365.365,0,0,0,.365-.365h0a.36.36,0,0,0-.365-.365h-5.168a.365.365,0,0,0-.365.365h0a.365.365,0,0,0,.365.365Z" transform="translate(-234.61 -300.235)" fill="#fff" stroke="#263238" stroke-linecap="round" stroke-linejoin="round" stroke-width="0.5"/>
          <path id="Path_8076" data-name="Path 8076" d="M183.011,243.73s12.445,9.691,14.59,11.121,4.283,1.734,4.388,2.449.61,1.939.1,2.754-1.734,3.674-2.449,4a5.985,5.985,0,0,1-3.264.3c-.51-.3.41-.915.715-1a8.876,8.876,0,0,1,.92-.2,11.055,11.055,0,0,1-2.349-2.649,22.126,22.126,0,0,1-1.324-3.369s-11.121-3.874-13.995-5.608-4.083-3.369-2.654-5.713" transform="translate(-177.086 -190.544)" fill="#fff" stroke="#263238" stroke-linecap="round" stroke-linejoin="round" stroke-width="1"/>
          <path id="Path_8077" data-name="Path 8077" d="M307.519,214.535a3.1,3.1,0,0,0,.92-1.939,23.846,23.846,0,0,0-1.225-7.752c-1.12-3.754-8.262-19.893-8.262-20.3s1-3.774.5-5.613a22.463,22.463,0,0,0-2.244-4.588l-5.808,1.629s.715,6.023,2.244,7.347,2.554,4,3.164,6.223,1.634,9.082,2.344,13.26a20.677,20.677,0,0,0,2.759,7.857" transform="translate(-234.264 -155.836)" fill="#fff" stroke="#263238" stroke-linecap="round" stroke-linejoin="round" stroke-width="1"/>
          <path id="Path_8078" data-name="Path 8078" d="M291.919,167.828l-2.5,5.5-12.375-4.218,3.584-7.857Z" transform="translate(-227.082 -149.289)" fill="#fff" stroke="#263238" stroke-linecap="round" stroke-linejoin="round" stroke-width="1"/>
          <path id="Path_8079" data-name="Path 8079" d="M277.93,171.888l6.528-5.1,7.247,3.979-2.044,4.693Z" transform="translate(-227.527 -152.06)" fill="#fff"/>
          <path id="Path_8080" data-name="Path 8080" d="M293.953,185.876a22.419,22.419,0,0,1-3.674-2.449c-.715-.815-1-2.754-1.225-4.5a16.448,16.448,0,0,0-1.324-4.078s.5-.715,1.629.1,1.634,3.569,1.634,3.569,2.754,1.429,3.164,3.164" transform="translate(-232.429 -155.946)" fill="#fff" stroke="#263238" stroke-linecap="round" stroke-linejoin="round" stroke-width="1"/>
          <path id="Path_8081" data-name="Path 8081" d="M210.962,144.044a24.726,24.726,0,0,0-8.392-3.754c-4.633-1-9.821,5.738-10.706,12.03s-1.654,17.663-1.654,17.663H204s-2.314-17.334-.77-22.522,7.062-2.539,7.062-2.539Z" transform="translate(-183.651 -138.756)" fill="#263238" stroke="#263238" stroke-linecap="round" stroke-linejoin="round" stroke-width="1"/>
          <path id="Path_8082" data-name="Path 8082" d="M261.655,140.068s4.3-4.858,5.848-1.659a6.777,6.777,0,0,1-1.874,7.837c-1.544,1.1-1.879.555-2.1-.11s-2.869-5.408-2.869-5.408Z" transform="translate(-218.889 -137.319)" fill="#263238" stroke="#263238" stroke-linecap="round" stroke-linejoin="round" stroke-width="1"/>
          <path id="Path_8083" data-name="Path 8083" d="M235.031,191.62s-3.774.775-5.743,3.189-1.764,9.162-1.764,11.5v7.282l6.842.11s-.88-9.821-1-12.25a32.029,32.029,0,0,1,.44-7.177,16.374,16.374,0,0,1,1.225-2.649Z" transform="translate(-202.311 -164.479)" fill="#247bdc" stroke="#263238" stroke-linecap="round" stroke-linejoin="round" stroke-width="1"/>
          <path id="Path_8084" data-name="Path 8084" d="M258.135,192.07s4.858,1.544,5.963,5.073,1.764,12.145,2,14.24.33,2.869.33,2.869a18.01,18.01,0,0,1-4.083.885,19.067,19.067,0,0,1-2.759-.22s.22-12.14-.44-15.564a36.227,36.227,0,0,0-1.324-5.188S258.025,192.535,258.135,192.07Z" transform="translate(-217.468 -164.705)" fill="#247bdc" stroke="#263238" stroke-linecap="round" stroke-linejoin="round" stroke-width="1"/>
          <path id="Path_8085" data-name="Path 8085" d="M231.16,173.536s-.775-1.434-.22-4.638a40.016,40.016,0,0,0,.22-7.837h-2.869c-1.659,0-5.3-1.434-5.743-4.083s.11-11.371,5.523-15.674,12.031-2,12.031-2a6.5,6.5,0,0,1,3.754,3.754c1.21,3,3.529,6.952,4.193,6.952s2.539,0,2.2,1.544a4.163,4.163,0,0,1-1.1,2.209s-.11,5.188-.11,6.732-1,1.764-3.534,2a15.742,15.742,0,0,1-1.654.055,4.258,4.258,0,0,0-2.649,2.5c-.775,2,.11,8.612.11,8.612" transform="translate(-199.765 -138.003)" fill="#fff" stroke="#263238" stroke-linecap="round" stroke-linejoin="round" stroke-width="1"/>
          <path id="Path_8086" data-name="Path 8086" d="M257.457,184.929a22.991,22.991,0,0,1-7.837-1.5l5.633,2.739Z" transform="translate(-213.367 -160.383)" fill="#263238" stroke="#263238" stroke-linecap="round" stroke-linejoin="round" stroke-width="1"/>
          <line id="Line_25" data-name="Line 25" x2="1.215" y2="2.319" transform="translate(44.31 10.142)" fill="none" stroke="#263238" stroke-linecap="round" stroke-linejoin="round" stroke-width="1"/>
          <path id="Path_8087" data-name="Path 8087" d="M267.389,161.81a4.293,4.293,0,0,1-2.539,1.1" transform="translate(-220.984 -149.569)" fill="none" stroke="#263238" stroke-linecap="round" stroke-linejoin="round" stroke-width="1"/>
          <path id="Path_8088" data-name="Path 8088" d="M262.31,153.237s-1.1-1.324-2.1-.11-.885,1.874-.885,1.874" transform="translate(-218.22 -144.969)" fill="none" stroke="#263238" stroke-linecap="round" stroke-linejoin="round" stroke-width="1"/>
          <path id="Path_8089" data-name="Path 8089" d="M240.1,139.378s-6.623-2.319-12.031,2-5.963,13-5.523,15.634,4.083,4.083,5.743,4.083h2.844l2.119-.88c-2.314.33-5.628-2.429-4.963-4.748s4-1.1,4.963-.11,1.769-.11,2.874-2-.225-3.419-.225-5.188,3.864-4.963,6.183-5.073a4.173,4.173,0,0,0,1.629-.3A6.5,6.5,0,0,0,240.1,139.378Z" transform="translate(-199.767 -138.037)" fill="#263238" stroke="#263238" stroke-linecap="round" stroke-linejoin="round" stroke-width="1"/>
        </g>
        <g id="freepik--Food--inject-51" transform="translate(39.803 12.43)">
          <path id="Path_8090" data-name="Path 8090" d="M251.5,37.706l-5.688,5.253,2.3,7.387-7.557,1.7L238.861,59.6l-7.392-2.3-5.253,5.683L220.968,57.3l-7.392,2.3-1.694-7.552-7.557-1.7,2.3-7.387-5.688-5.253,5.688-5.253-2.3-7.387,7.557-1.7,1.694-7.552,7.392,2.3,5.248-5.683,5.253,5.683,7.392-2.3,1.694,7.552,7.557,1.7-2.3,7.387Z" transform="translate(-125.833 -12.43)" fill="none" stroke="#696969" stroke-linecap="round" stroke-linejoin="round" stroke-width="1"/>
          <circle id="Ellipse_254" data-name="Ellipse 254" cx="18.038" cy="18.038" r="18.038" transform="translate(82.344 7.237)" fill="none" stroke="#696969" stroke-linecap="round" stroke-linejoin="round" stroke-width="1"/>
          <path id="Path_8091" data-name="Path 8091" d="M402.347,214.786a14.5,14.5,0,0,0-6.208-10.941c-6.263-4.618-12.63-5.378-17.653-1.659s-7.937,7.762-7.3,13.57,4.763,12.09,9.646,15.279,12.7,2.8,16.739-1.554S403.207,220.809,402.347,214.786Z" transform="translate(-210.944 -106.162)" fill="none" stroke="#696969" stroke-linecap="round" stroke-linejoin="round" stroke-width="1"/>
          <path id="Path_8092" data-name="Path 8092" d="M402.4,215.693a13.761,13.761,0,0,0-5.893-10.386c-5.948-4.388-12-5.108-16.759-1.574s-7.5,7.372-6.937,12.885,4.523,11.5,9.162,14.495,12.055,2.659,15.894-1.5S403.216,221.416,402.4,215.693Z" transform="translate(-211.763 -106.994)" fill="none" stroke="#696969" stroke-linecap="round" stroke-linejoin="round" stroke-width="1"/>
          <line id="Line_26" data-name="Line 26" x1="0.7" y2="5.248" transform="translate(175.909 98.523)" fill="none" stroke="#696969" stroke-linecap="round" stroke-linejoin="round" stroke-width="1"/>
          <line id="Line_27" data-name="Line 27" x2="0.95" y2="3.539" transform="translate(173.79 99.508)" fill="none" stroke="#696969" stroke-linecap="round" stroke-linejoin="round" stroke-width="1"/>
          <line id="Line_28" data-name="Line 28" x2="2.249" y2="3.774" transform="translate(171.261 99.993)" fill="none" stroke="#696969" stroke-linecap="round" stroke-linejoin="round" stroke-width="1"/>
          <path id="Path_8093" data-name="Path 8093" d="M389.6,214.33c.255.225,3.439,3.619,3.439,3.619" transform="translate(-220.198 -113.418)" fill="none" stroke="#696969" stroke-linecap="round" stroke-linejoin="round" stroke-width="1"/>
          <line id="Line_29" data-name="Line 29" x2="3.084" y2="3.159" transform="translate(168.542 102.407)" fill="none" stroke="#696969" stroke-linecap="round" stroke-linejoin="round" stroke-width="1"/>
          <line id="Line_30" data-name="Line 30" x1="3.599" y1="2.409" transform="translate(167.697 104.221)" fill="none" stroke="#696969" stroke-linecap="round" stroke-linejoin="round" stroke-width="1"/>
          <line id="Line_31" data-name="Line 31" x1="3.799" y1="1.829" transform="translate(167.302 105.531)" fill="none" stroke="#696969" stroke-linecap="round" stroke-linejoin="round" stroke-width="1"/>
          <line id="Line_32" data-name="Line 32" x1="4.043" y1="0.7" transform="translate(166.633 107.49)" fill="none" stroke="#696969" stroke-linecap="round" stroke-linejoin="round" stroke-width="1"/>
          <line id="Line_33" data-name="Line 33" x1="4.453" y2="0.445" transform="translate(167.242 109.084)" fill="none" stroke="#696969" stroke-linecap="round" stroke-linejoin="round" stroke-width="1"/>
          <line id="Line_34" data-name="Line 34" x1="3.974" y2="1.619" transform="translate(167.602 109.729)" fill="none" stroke="#696969" stroke-linecap="round" stroke-linejoin="round" stroke-width="1"/>
          <line id="Line_35" data-name="Line 35" x1="3.899" y2="1.534" transform="translate(168.472 110.879)" fill="none" stroke="#696969" stroke-linecap="round" stroke-linejoin="round" stroke-width="1"/>
          <line id="Line_36" data-name="Line 36" x1="4.248" y2="2.274" transform="translate(168.512 111.973)" fill="none" stroke="#696969" stroke-linecap="round" stroke-linejoin="round" stroke-width="1"/>
          <line id="Line_37" data-name="Line 37" x1="4.143" y2="2.669" transform="translate(169.072 112.823)" fill="none" stroke="#696969" stroke-linecap="round" stroke-linejoin="round" stroke-width="1"/>
          <line id="Line_38" data-name="Line 38" x1="3.319" y2="3.094" transform="translate(170.206 113.842)" fill="none" stroke="#696969" stroke-linecap="round" stroke-linejoin="round" stroke-width="1"/>
          <line id="Line_39" data-name="Line 39" x1="1.714" y2="4.353" transform="translate(172.87 114.172)" fill="none" stroke="#696969" stroke-linecap="round" stroke-linejoin="round" stroke-width="1"/>
          <line id="Line_40" data-name="Line 40" x1="1.135" y2="4.713" transform="translate(174.65 114.172)" fill="none" stroke="#696969" stroke-linecap="round" stroke-linejoin="round" stroke-width="1"/>
          <line id="Line_41" data-name="Line 41" x1="0.155" y2="4.973" transform="translate(176.869 114.812)" fill="none" stroke="#696969" stroke-linecap="round" stroke-linejoin="round" stroke-width="1"/>
          <line id="Line_42" data-name="Line 42" x2="1.694" y2="5.093" transform="translate(178.478 115.037)" fill="none" stroke="#696969" stroke-linecap="round" stroke-linejoin="round" stroke-width="1"/>
          <line id="Line_43" data-name="Line 43" x2="3.394" y2="4.178" transform="translate(179.638 114.402)" fill="none" stroke="#696969" stroke-linecap="round" stroke-linejoin="round" stroke-width="1"/>
          <line id="Line_44" data-name="Line 44" x2="4.498" y2="3.949" transform="translate(180.722 113.852)" fill="none" stroke="#696969" stroke-linecap="round" stroke-linejoin="round" stroke-width="1"/>
          <line id="Line_45" data-name="Line 45" x2="5.963" y2="3.134" transform="translate(181.042 112.633)" fill="none" stroke="#696969" stroke-linecap="round" stroke-linejoin="round" stroke-width="1"/>
          <line id="Line_46" data-name="Line 46" x2="4.978" y2="1.519" transform="translate(181.702 111.708)" fill="none" stroke="#696969" stroke-linecap="round" stroke-linejoin="round" stroke-width="1"/>
          <line id="Line_47" data-name="Line 47" y1="0.855" x2="4.503" transform="translate(181.077 109.859)" fill="none" stroke="#696969" stroke-linecap="round" stroke-linejoin="round" stroke-width="1"/>
          <line id="Line_48" data-name="Line 48" y1="1.734" x2="4.523" transform="translate(181.092 107.935)" fill="none" stroke="#696969" stroke-linecap="round" stroke-linejoin="round" stroke-width="1"/>
          <line id="Line_49" data-name="Line 49" x1="5.103" y2="2.729" transform="translate(179.923 106.215)" fill="none" stroke="#696969" stroke-linecap="round" stroke-linejoin="round" stroke-width="1"/>
          <line id="Line_50" data-name="Line 50" x1="4.178" y2="3.389" transform="translate(180.393 104.166)" fill="none" stroke="#696969" stroke-linecap="round" stroke-linejoin="round" stroke-width="1"/>
          <line id="Line_51" data-name="Line 51" x1="2.894" y2="3.464" transform="translate(180.398 102.892)" fill="none" stroke="#696969" stroke-linecap="round" stroke-linejoin="round" stroke-width="1"/>
          <line id="Line_52" data-name="Line 52" x1="2.654" y2="4.733" transform="translate(179.333 101.292)" fill="none" stroke="#696969" stroke-linecap="round" stroke-linejoin="round" stroke-width="1"/>
          <line id="Line_53" data-name="Line 53" x1="1.599" y2="3.704" transform="translate(178.718 101.482)" fill="none" stroke="#696969" stroke-linecap="round" stroke-linejoin="round" stroke-width="1"/>
          <line id="Line_54" data-name="Line 54" x1="1.25" y2="4.163" transform="translate(177.894 100.597)" fill="none" stroke="#696969" stroke-linecap="round" stroke-linejoin="round" stroke-width="1"/>
          <line id="Line_55" data-name="Line 55" x1="1.28" y2="4.883" transform="translate(176.864 100.023)" fill="none" stroke="#696969" stroke-linecap="round" stroke-linejoin="round" stroke-width="1"/>
          <circle id="Ellipse_255" data-name="Ellipse 255" cx="0.68" cy="0.68" r="0.68" transform="matrix(0.544, -0.839, 0.839, 0.544, 170.743, 106.719)" fill="#696969"/>
          <path id="Path_8094" data-name="Path 8094" d="M395.288,220.442a.68.68,0,1,1-.065-.96A.68.68,0,0,1,395.288,220.442Z" transform="translate(-222.447 -115.911)" fill="#696969"/>
          <path id="Path_8095" data-name="Path 8095" d="M400.107,218.362a.68.68,0,1,1-.06-.955.68.68,0,0,1,.06.955Z" transform="translate(-224.858 -114.871)" fill="#696969"/>
          <path id="Path_8096" data-name="Path 8096" d="M406.415,221.795a.68.68,0,1,1-.065-.955.68.68,0,0,1,.065.955Z" transform="translate(-228.012 -116.589)" fill="#696969"/>
          <path id="Path_8097" data-name="Path 8097" d="M412.179,221.747a.675.675,0,1,1,.168-.49A.675.675,0,0,1,412.179,221.747Z" transform="translate(-230.902 -116.566)" fill="#696969"/>
          <path id="Path_8098" data-name="Path 8098" d="M411.157,225.649a.675.675,0,1,1-.065-.955A.675.675,0,0,1,411.157,225.649Z" transform="translate(-230.39 -118.519)" fill="#696969"/>
          <path id="Path_8099" data-name="Path 8099" d="M412.232,229.874a.675.675,0,1,1-.06-.96A.675.675,0,0,1,412.232,229.874Z" transform="translate(-230.93 -120.63)" fill="#696969"/>
          <path id="Path_8100" data-name="Path 8100" d="M414,235.065a.675.675,0,1,1,.166-.491A.68.68,0,0,1,414,235.065Z" transform="translate(-231.803 -123.227)" fill="#696969"/>
          <path id="Path_8101" data-name="Path 8101" d="M413.819,239.4a.675.675,0,1,1,.168-.49.675.675,0,0,1-.168.49Z" transform="translate(-231.722 -125.395)" fill="#696969"/>
          <path id="Path_8102" data-name="Path 8102" d="M410.987,242.942a.675.675,0,1,1,.168-.49.68.68,0,0,1-.168.49Z" transform="translate(-230.3 -127.166)" fill="#696969"/>
          <path id="Path_8103" data-name="Path 8103" d="M407.948,245.382a.68.68,0,1,1,.166-.493A.68.68,0,0,1,407.948,245.382Z" transform="translate(-228.78 -128.386)" fill="#696969"/>
          <path id="Path_8104" data-name="Path 8104" d="M404.55,244.8a.68.68,0,1,1-.06-.96.68.68,0,0,1,.06.96Z" transform="translate(-227.081 -128.093)" fill="#696969"/>
          <path id="Path_8105" data-name="Path 8105" d="M401.332,244.374a.675.675,0,1,1-.06-.96.675.675,0,0,1,.06.96Z" transform="translate(-225.478 -127.883)" fill="#696969"/>
          <path id="Path_8106" data-name="Path 8106" d="M395.1,242.212a.675.675,0,1,1,.168-.49A.68.68,0,0,1,395.1,242.212Z" transform="translate(-222.352 -126.8)" fill="#696969"/>
          <path id="Path_8107" data-name="Path 8107" d="M395.808,238.012a.68.68,0,1,1,.166-.493.68.68,0,0,1-.166.493Z" transform="translate(-222.707 -124.699)" fill="#696969"/>
          <path id="Path_8108" data-name="Path 8108" d="M392.9,232.755a.675.675,0,1,1-.04-.94.675.675,0,0,1,.04.94Z" transform="translate(-221.26 -122.072)" fill="#696969"/>
          <path id="Path_8109" data-name="Path 8109" d="M389.665,227.525a.68.68,0,1,1-.065-.955A.68.68,0,0,1,389.665,227.525Z" transform="translate(-219.634 -119.455)" fill="#696969"/>
          <path id="Path_8110" data-name="Path 8110" d="M408.289,223.437a.675.675,0,1,1-.06-.955A.675.675,0,0,1,408.289,223.437Z" transform="translate(-228.956 -117.412)" fill="#696969"/>
          <path id="Path_8111" data-name="Path 8111" d="M396.417,222.929a.675.675,0,1,1,.166-.491A.675.675,0,0,1,396.417,222.929Z" transform="translate(-223.017 -117.159)" fill="#696969"/>
          <circle id="Ellipse_256" data-name="Ellipse 256" cx="16.874" cy="16.874" r="16.874" transform="translate(143.846 38.476)" fill="none" stroke="#696969" stroke-linecap="round" stroke-linejoin="round" stroke-width="1"/>
          <circle id="Ellipse_257" data-name="Ellipse 257" cx="15.579" cy="15.579" r="15.579" transform="translate(145.141 39.77)" fill="none" stroke="#696969" stroke-linecap="round" stroke-linejoin="round" stroke-width="1"/>
          <path id="Path_8112" data-name="Path 8112" d="M359.024,97.762l1.894,10.086a.5.5,0,0,1-.77.5l-8.687-5.818a2.174,2.174,0,0,1,.055-3.614l4.193-2.5a2.179,2.179,0,0,1,3.314,1.344Z" transform="translate(-200.653 -54.263)" fill="none" stroke="#696969" stroke-linecap="round" stroke-linejoin="round" stroke-width="1"/>
          <path id="Path_8113" data-name="Path 8113" d="M347.622,109.39l8.467,5.793a.5.5,0,0,1-.185.9l-10.261,2a2.179,2.179,0,0,1-2.5-2.594l1.185-4.748a2.179,2.179,0,0,1,3.294-1.354Z" transform="translate(-196.938 -60.758)" fill="none" stroke="#696969" stroke-linecap="round" stroke-linejoin="round" stroke-width="1"/>
          <path id="Path_8114" data-name="Path 8114" d="M346.824,125.962l10.081-1.889a.5.5,0,0,1,.5.77l-5.813,8.687a2.179,2.179,0,0,1-3.619-.055l-2.5-4.193a2.179,2.179,0,0,1,1.349-3.319Z" transform="translate(-197.95 -68.269)" fill="none" stroke="#696969" stroke-linecap="round" stroke-linejoin="round" stroke-width="1"/>
          <path id="Path_8115" data-name="Path 8115" d="M358.45,134.557l5.793-8.467a.5.5,0,0,1,.9.185l2.024,10.261a2.174,2.174,0,0,1-2.594,2.5l-4.748-1.18a2.179,2.179,0,0,1-1.379-3.3Z" transform="translate(-204.447 -69.171)" fill="none" stroke="#696969" stroke-linecap="round" stroke-linejoin="round" stroke-width="1"/>
          <path id="Path_8116" data-name="Path 8116" d="M375.027,136.188,373.132,126.1a.5.5,0,0,1,.775-.5l8.682,5.823a2.174,2.174,0,0,1-.05,3.614l-4.2,2.524a2.174,2.174,0,0,1-3.314-1.374Z" transform="translate(-211.957 -68.994)" fill="none" stroke="#696969" stroke-linecap="round" stroke-linejoin="round" stroke-width="1"/>
          <path id="Path_8117" data-name="Path 8117" d="M383.617,127.866l-8.467-5.8a.5.5,0,0,1,.185-.9l10.261-2a2.179,2.179,0,0,1,2.5,2.594l-1.185,4.748a2.179,2.179,0,0,1-3.294,1.364Z" transform="translate(-212.861 -65.799)" fill="none" stroke="#696969" stroke-linecap="round" stroke-linejoin="round" stroke-width="1"/>
          <path id="Path_8118" data-name="Path 8118" d="M385.257,109.963l-10.081,1.889a.5.5,0,0,1-.5-.77L380.5,102.4a2.179,2.179,0,0,1,3.614.055l2.5,4.193a2.179,2.179,0,0,1-1.359,3.319Z" transform="translate(-212.692 -56.962)" fill="none" stroke="#696969" stroke-linecap="round" stroke-linejoin="round" stroke-width="1"/>
          <path id="Path_8119" data-name="Path 8119" d="M376.936,98.547,371.143,107a.5.5,0,0,1-.9-.19l-2-10.256a2.179,2.179,0,0,1,2.594-2.5l4.753,1.18a2.179,2.179,0,0,1,1.349,3.314Z" transform="translate(-209.498 -53.234)" fill="none" stroke="#696969" stroke-linecap="round" stroke-linejoin="round" stroke-width="1"/>
          <path id="Path_8120" data-name="Path 8120" d="M330.125,85.69a18.433,18.433,0,0,0-8.682-5.293c-5.5-1.5-9.107,1.5-11.436,3.809a22.2,22.2,0,0,1-5.5,3.814,19.143,19.143,0,0,0,9.531.845c5.5-.845,8.062-3.969,9.526-4.443A7.243,7.243,0,0,1,330.125,85.69Z" transform="translate(-177.637 -46.224)" fill="none" stroke="#696969" stroke-linecap="round" stroke-linejoin="round" stroke-width="1"/>
          <path id="Path_8121" data-name="Path 8121" d="M69.3,145.131s-3.314,1.539-3.169,4.228a73.833,73.833,0,0,1,.295,11.876c-.265,8.477-.825,13.89,2.664,18.928s11.836,10.7,14.54,11a8.331,8.331,0,0,0,6.208-1.909c.82-.91,2-2.344,3.129-2.049s3.919-1.5,4.658-4.5a26.461,26.461,0,0,0-1.809-17.823c-3.734-7.577-9.451-13.185-13.1-17.878s-6.792-4.223-7.8-3.839l-1.9.715A5.334,5.334,0,0,0,69.3,145.131Z" transform="translate(-58.403 -77.706)" fill="none" stroke="#696969" stroke-linecap="round" stroke-linejoin="round" stroke-width="1"/>
          <path id="Path_8122" data-name="Path 8122" d="M85.369,166.071a1,1,0,1,1-.528-.57A1,1,0,0,1,85.369,166.071Z" transform="translate(-67.056 -88.95)" fill="#696969"/>
          <path id="Path_8123" data-name="Path 8123" d="M86.949,170.241a1,1,0,1,1-.528-.57A1,1,0,0,1,86.949,170.241Z" transform="translate(-67.846 -91.035)" fill="#696969"/>
          <path id="Path_8124" data-name="Path 8124" d="M100.629,181.231a1,1,0,1,1-.528-.57A1,1,0,0,1,100.629,181.231Z" transform="translate(-74.689 -96.532)" fill="#696969"/>
          <path id="Path_8125" data-name="Path 8125" d="M99.061,186.515a1,1,0,1,1-.529-.567A1,1,0,0,1,99.061,186.515Z" transform="translate(-73.905 -99.178)" fill="#696969"/>
          <path id="Path_8126" data-name="Path 8126" d="M102.464,196.144a1,1,0,1,1,.032-.775A1,1,0,0,1,102.464,196.144Z" transform="translate(-75.624 -103.608)" fill="#696969"/>
          <path id="Path_8127" data-name="Path 8127" d="M99.164,207.084a1,1,0,1,1,.032-.775A1,1,0,0,1,99.164,207.084Z" transform="translate(-73.974 -109.08)" fill="#696969"/>
          <path id="Path_8128" data-name="Path 8128" d="M103.434,209.834a1,1,0,1,1,.032-.775A1,1,0,0,1,103.434,209.834Z" transform="translate(-76.109 -110.456)" fill="#696969"/>
          <path id="Path_8129" data-name="Path 8129" d="M100.374,202.574a1,1,0,1,1,.032-.775A1,1,0,0,1,100.374,202.574Z" transform="translate(-74.579 -106.824)" fill="#696969"/>
          <path id="Path_8130" data-name="Path 8130" d="M101.394,205.274a1,1,0,1,1,.032-.775A1,1,0,0,1,101.394,205.274Z" transform="translate(-75.089 -108.175)" fill="#696969"/>
          <path id="Path_8131" data-name="Path 8131" d="M86.754,200.294a1,1,0,1,1,.032-.775A1,1,0,0,1,86.754,200.294Z" transform="translate(-67.766 -105.684)" fill="#696969"/>
          <path id="Path_8132" data-name="Path 8132" d="M97.059,177.4a1,1,0,1,1-.528-.57A1,1,0,0,1,97.059,177.4Z" transform="translate(-72.903 -94.617)" fill="#696969"/>
          <path id="Path_8133" data-name="Path 8133" d="M98.433,192.543a1,1,0,1,1-.523-.582A1,1,0,0,1,98.433,192.543Z" transform="translate(-73.587 -102.182)" fill="#696969"/>
          <path id="Path_8134" data-name="Path 8134" d="M93.859,186.861a1,1,0,1,1-.528-.57A1,1,0,0,1,93.859,186.861Z" transform="translate(-71.302 -99.348)" fill="#696969"/>
          <path id="Path_8135" data-name="Path 8135" d="M106.7,190.9a1,1,0,1,1-.53-.572,1,1,0,0,1,.53.572Z" transform="translate(-77.724 -101.368)" fill="#696969"/>
          <path id="Path_8136" data-name="Path 8136" d="M108.4,203.986a1,1,0,1,1-.527-.573A1,1,0,0,1,108.4,203.986Z" transform="translate(-78.574 -107.912)" fill="#696969"/>
          <path id="Path_8137" data-name="Path 8137" d="M113.058,219.769a1,1,0,1,1-.53-.572,1,1,0,0,1,.53.572Z" transform="translate(-80.905 -115.808)" fill="#696969"/>
          <path id="Path_8138" data-name="Path 8138" d="M108.228,200.339a1,1,0,1,1-.53-.572,1,1,0,0,1,.53.572Z" transform="translate(-78.489 -106.089)" fill="#696969"/>
          <path id="Path_8139" data-name="Path 8139" d="M103.569,200.161a1,1,0,1,1-.528-.57A1,1,0,0,1,103.569,200.161Z" transform="translate(-76.159 -106.001)" fill="#696969"/>
          <path id="Path_8140" data-name="Path 8140" d="M106.528,210.989a1,1,0,1,1-.53-.572,1,1,0,0,1,.53.572Z" transform="translate(-77.639 -111.416)" fill="#696969"/>
          <path id="Path_8141" data-name="Path 8141" d="M109.788,196.519a1,1,0,1,1-.53-.572A1,1,0,0,1,109.788,196.519Z" transform="translate(-79.27 -104.179)" fill="#696969"/>
          <path id="Path_8142" data-name="Path 8142" d="M105.319,202.241a1,1,0,1,1-.528-.57A1,1,0,0,1,105.319,202.241Z" transform="translate(-77.035 -107.041)" fill="#696969"/>
          <path id="Path_8143" data-name="Path 8143" d="M109.669,209.521a1,1,0,1,1-.528-.57A1,1,0,0,1,109.669,209.521Z" transform="translate(-79.21 -110.683)" fill="#696969"/>
          <path id="Path_8144" data-name="Path 8144" d="M110.308,217.2a1,1,0,1,1-.53-.572,1,1,0,0,1,.53.572Z" transform="translate(-79.53 -114.522)" fill="#696969"/>
          <path id="Path_8145" data-name="Path 8145" d="M109.7,213.631a1,1,0,1,1-.528-.57A1,1,0,0,1,109.7,213.631Z" transform="translate(-79.225 -112.738)" fill="#696969"/>
          <path id="Path_8146" data-name="Path 8146" d="M111.588,223.019a1,1,0,1,1-.53-.572,1,1,0,0,1,.53.572Z" transform="translate(-80.17 -117.434)" fill="#696969"/>
          <path id="Path_8147" data-name="Path 8147" d="M97.229,213.981a1,1,0,1,1-.528-.57A1,1,0,0,1,97.229,213.981Z" transform="translate(-72.988 -112.914)" fill="#696969"/>
          <path id="Path_8148" data-name="Path 8148" d="M92.369,175.631a1,1,0,1,1-.528-.57A1,1,0,0,1,92.369,175.631Z" transform="translate(-70.557 -93.731)" fill="#696969"/>
          <path id="Path_8149" data-name="Path 8149" d="M89.9,184.5a1,1,0,1,1-.535-.56A1,1,0,0,1,89.9,184.5Z" transform="translate(-69.327 -98.174)" fill="#696969"/>
          <path id="Path_8150" data-name="Path 8150" d="M93.057,188.885a1,1,0,1,1-.529-.575A1,1,0,0,1,93.057,188.885Z" transform="translate(-70.9 -100.358)" fill="#696969"/>
          <path id="Path_8151" data-name="Path 8151" d="M82.259,186.071a1,1,0,1,1-.528-.57A1,1,0,0,1,82.259,186.071Z" transform="translate(-65.5 -98.953)" fill="#696969"/>
          <path id="Path_8152" data-name="Path 8152" d="M80.706,191.814a1,1,0,1,1-.536-.579A1,1,0,0,1,80.706,191.814Z" transform="translate(-64.722 -101.822)" fill="#696969"/>
          <path id="Path_8153" data-name="Path 8153" d="M82.447,194.716a1,1,0,1,1-.527-.573A1,1,0,0,1,82.447,194.716Z" transform="translate(-65.594 -103.276)" fill="#696969"/>
          <path id="Path_8154" data-name="Path 8154" d="M86.959,195.111a1,1,0,1,1-.528-.57A1,1,0,0,1,86.959,195.111Z" transform="translate(-67.851 -103.475)" fill="#696969"/>
          <path id="Path_8155" data-name="Path 8155" d="M93.938,204.6a1,1,0,1,1-.53-.572A1,1,0,0,1,93.938,204.6Z" transform="translate(-71.342 -108.22)" fill="#696969"/>
          <path id="Path_8156" data-name="Path 8156" d="M82.509,201.931a1,1,0,1,1-.528-.57A1,1,0,0,1,82.509,201.931Z" transform="translate(-65.625 -106.886)" fill="#696969"/>
          <path id="Path_8157" data-name="Path 8157" d="M85.3,206.543a1,1,0,1,1-.523-.582A1,1,0,0,1,85.3,206.543Z" transform="translate(-67.02 -109.185)" fill="#696969"/>
          <path id="Path_8158" data-name="Path 8158" d="M88.978,207.079a1,1,0,1,1-.53-.572,1,1,0,0,1,.53.572Z" transform="translate(-68.861 -109.461)" fill="#696969"/>
          <path id="Path_8159" data-name="Path 8159" d="M89.289,173.881a1,1,0,1,1-.528-.57A1,1,0,0,1,89.289,173.881Z" transform="translate(-69.017 -92.856)" fill="#696969"/>
          <path id="Path_8160" data-name="Path 8160" d="M93.179,181.621a1,1,0,1,1-.528-.57A1,1,0,0,1,93.179,181.621Z" transform="translate(-70.962 -96.728)" fill="#696969"/>
          <path id="Path_8161" data-name="Path 8161" d="M90.688,179.937a1,1,0,1,1-.532-.575A1,1,0,0,1,90.688,179.937Z" transform="translate(-69.716 -95.884)" fill="#696969"/>
          <path id="Path_8162" data-name="Path 8162" d="M88.06,189.524a1,1,0,1,1-.524-.565A1,1,0,0,1,88.06,189.524Z" transform="translate(-68.403 -100.682)" fill="#696969"/>
          <path id="Path_8163" data-name="Path 8163" d="M83.607,180.226a1,1,0,1,1-.527-.573A1,1,0,0,1,83.607,180.226Z" transform="translate(-66.174 -96.028)" fill="#696969"/>
          <path id="Path_8164" data-name="Path 8164" d="M93.119,196.021a1,1,0,1,1-.528-.57A1,1,0,0,1,93.119,196.021Z" transform="translate(-70.932 -103.93)" fill="#696969"/>
          <path id="Path_8165" data-name="Path 8165" d="M96.277,199.676a1,1,0,1,1-.527-.573A1,1,0,0,1,96.277,199.676Z" transform="translate(-72.511 -105.757)" fill="#696969"/>
          <path id="Path_8166" data-name="Path 8166" d="M97.059,202.131a1,1,0,1,1-.528-.57A1,1,0,0,1,97.059,202.131Z" transform="translate(-72.903 -106.986)" fill="#696969"/>
          <path id="Path_8167" data-name="Path 8167" d="M81.539,198.341a1,1,0,1,1-.528-.57A1,1,0,0,1,81.539,198.341Z" transform="translate(-65.14 -105.091)" fill="#696969"/>
          <path id="Path_8168" data-name="Path 8168" d="M86.359,202.931a1,1,0,1,1-.528-.57A1,1,0,0,1,86.359,202.931Z" transform="translate(-67.551 -107.386)" fill="#696969"/>
          <path id="Path_8169" data-name="Path 8169" d="M93.419,210.931a1,1,0,1,1-.528-.57A1,1,0,0,1,93.419,210.931Z" transform="translate(-71.082 -111.388)" fill="#696969"/>
          <path id="Path_8170" data-name="Path 8170" d="M96.209,208.911a1,1,0,1,1-.528-.57A1,1,0,0,1,96.209,208.911Z" transform="translate(-72.478 -110.378)" fill="#696969"/>
          <path id="Path_8171" data-name="Path 8171" d="M89.059,212.051a1,1,0,1,1-.528-.57A1,1,0,0,1,89.059,212.051Z" transform="translate(-68.901 -111.948)" fill="#696969"/>
          <path id="Path_8172" data-name="Path 8172" d="M93.059,215.441a1,1,0,1,1-.528-.57A1,1,0,0,1,93.059,215.441Z" transform="translate(-70.902 -113.644)" fill="#696969"/>
          <path id="Path_8173" data-name="Path 8173" d="M104.059,205.581a1,1,0,1,1-.528-.57A1,1,0,0,1,104.059,205.581Z" transform="translate(-76.404 -108.712)" fill="#696969"/>
          <path id="Path_8174" data-name="Path 8174" d="M107.859,221.9a1,1,0,1,1-.528-.57A1,1,0,0,1,107.859,221.9Z" transform="translate(-78.305 -116.875)" fill="#696969"/>
          <path id="Path_8175" data-name="Path 8175" d="M105.157,216.156a1,1,0,1,1-.527-.573A1,1,0,0,1,105.157,216.156Z" transform="translate(-76.953 -114)" fill="#696969"/>
          <path id="Path_8176" data-name="Path 8176" d="M100.469,214.861a1,1,0,1,1-.528-.57A1,1,0,0,1,100.469,214.861Z" transform="translate(-74.609 -113.354)" fill="#696969"/>
          <path id="Path_8177" data-name="Path 8177" d="M101.909,218.671a1,1,0,1,1-.528-.57A1,1,0,0,1,101.909,218.671Z" transform="translate(-75.329 -115.259)" fill="#696969"/>
          <path id="Path_8178" data-name="Path 8178" d="M102.387,211.386a1,1,0,1,1-.527-.573A1,1,0,0,1,102.387,211.386Z" transform="translate(-75.567 -111.614)" fill="#696969"/>
          <path id="Path_8179" data-name="Path 8179" d="M107.849,217.721a1,1,0,1,1-.528-.57A1,1,0,0,1,107.849,217.721Z" transform="translate(-78.3 -114.784)" fill="#696969"/>
          <path id="Path_8180" data-name="Path 8180" d="M102.919,186.021a1,1,0,1,1-.528-.57A1,1,0,0,1,102.919,186.021Z" transform="translate(-75.834 -98.928)" fill="#696969"/>
          <path id="Path_8181" data-name="Path 8181" d="M101.579,184.361a1,1,0,1,1,.632.448A1,1,0,0,1,101.579,184.361Z" transform="translate(-76.059 -97.664)" fill="#696969"/>
          <path id="Path_8182" data-name="Path 8182" d="M82.718,145.71a3.574,3.574,0,0,0-.35,3.359c.68,2.164,3.184,5.933,4.5,8s7.5,5.243,9.581,10.781" transform="translate(-66.409 -79.095)" fill="none" stroke="#696969" stroke-linecap="round" stroke-linejoin="round" stroke-width="1"/>
          <path id="Path_8183" data-name="Path 8183" d="M112,193.29a31.164,31.164,0,0,1,1,8.352" transform="translate(-81.346 -102.894)" fill="none" stroke="#696969" stroke-linecap="round" stroke-linejoin="round" stroke-width="1"/>
          <path id="Path_8184" data-name="Path 8184" d="M80.659,159.92a49.48,49.48,0,0,0-.915,7.207c-.14,3.549-2,6.533-.715,12.375" transform="translate(-64.63 -86.203)" fill="none" stroke="#696969" stroke-linecap="round" stroke-linejoin="round" stroke-width="1"/>
          <path id="Path_8185" data-name="Path 8185" d="M95.27,221.68s2.909.925,4.793,1.29" transform="translate(-72.978 -117.094)" fill="none" stroke="#696969" stroke-linecap="round" stroke-linejoin="round" stroke-width="1"/>
          <path id="Path_8186" data-name="Path 8186" d="M112.682,77.514a3.779,3.779,0,0,0-2.234,3.174,5.143,5.143,0,0,0,1.1,3.789s-2.274,1.974-1.669,4.308a5.268,5.268,0,0,0,2.339,3.254,4.886,4.886,0,0,0,3,4.5c3.2,1.539,5.228.21,6-.94s1.095-1.759,1.095-1.759,3.729-1.055,4.363-3.079-.875-4.033-2.614-4.953c0,0,1.789-1.28,2-2.649,0,0,1.974,2.554,4.218,1.819s3.624-2.5,2.129-4.608a8.719,8.719,0,0,0,3.354-.62,3.719,3.719,0,0,0,1.684-1.584,3.754,3.754,0,0,0,2.679-.36c1.289-.76,2.729-2.279,2-4.353a4.868,4.868,0,0,0-2-2.729,17.1,17.1,0,0,0-3.669-3.689,3.843,3.843,0,0,0-2.674-.775,9.544,9.544,0,0,0-6-1.389c-3.149.49-3.579,1.424-3.579,1.424a13.645,13.645,0,0,0-6.5,1.569,6.461,6.461,0,0,0-3.5,4.563,4.178,4.178,0,0,0-1.524,5.088Z" transform="translate(-80.234 -38.618)" fill="none" stroke="#696969" stroke-linecap="round" stroke-linejoin="round" stroke-width="1"/>
          <path id="Path_8187" data-name="Path 8187" d="M130.735,76.93c-4.728.115-6.548,4.618-6.548,4.618s-.5-.045-1.614-.16a5.578,5.578,0,0,0-2.354.43c-7.677,3.764-3.454,10.856-3.454,10.856a4.985,4.985,0,0,0-2.324,4.738" transform="translate(-82.544 -44.692)" fill="none" stroke="#696969" stroke-linecap="round" stroke-linejoin="round" stroke-width="1"/>
          <path id="Path_8188" data-name="Path 8188" d="M138.36,106.189s4.748-.5,7.352,1.724,2.554,5.278,2.839,5.563,3.529-1.21,5.3-2.379,3.429-2.929,3.389-3.559-3.644-5.218-3.234-10.576.39-6.093.39-6.093" transform="translate(-94.531 -51.665)" fill="none" stroke="#696969" stroke-linecap="round" stroke-linejoin="round" stroke-width="1"/>
          <path id="Path_8189" data-name="Path 8189" d="M150.74,105.22a12.5,12.5,0,0,0,2.754,4.583" transform="translate(-100.724 -58.842)" fill="none" stroke="#696969" stroke-linecap="round" stroke-linejoin="round" stroke-width="1"/>
          <path id="Path_8190" data-name="Path 8190" d="M158.88,93.734s.29,5,1.549,6.038,3.039-3.5,1.549-8.182" transform="translate(-104.795 -52.025)" fill="none" stroke="#696969" stroke-linecap="round" stroke-linejoin="round" stroke-width="1"/>
          <path id="Path_8191" data-name="Path 8191" d="M161.06,106.75s.54,1.584,3.109,2.334" transform="translate(-105.886 -59.608)" fill="none" stroke="#696969" stroke-linecap="round" stroke-linejoin="round" stroke-width="1"/>
          <path id="Path_8192" data-name="Path 8192" d="M142.27,110.41s1.6-.07,4.188,2.839" transform="translate(-96.487 -61.438)" fill="none" stroke="#696969" stroke-linecap="round" stroke-linejoin="round" stroke-width="1"/>
          <path id="Path_8193" data-name="Path 8193" d="M143.49,112.868a2.088,2.088,0,0,1,1.924-.2" transform="translate(-97.097 -62.482)" fill="none" stroke="#696969" stroke-linecap="round" stroke-linejoin="round" stroke-width="1"/>
          <path id="Path_8194" data-name="Path 8194" d="M378.62,316.633a2,2,0,0,1-.4-2.754c1.08-1.634,4.713-3.539,6.168-3.444s2.054.575,2.5.215,1.1-1.245-.035-1.659-3.659-.63-6.737.97-4.428,3.7-5.343,3.549-1.6-1.569-3.219-2.889-5.718-1.2-8.077,1.319-5.023,9.022-6.652,13.1-1.065,8.062,1,9.272,2.744.47,2.744.47a5.223,5.223,0,0,0,4.038,3c2.949.34,3.539-.45,3.539-.45A10.261,10.261,0,0,0,372,334.177c1.709-2.274,3.644-5.8,5.938-7.357s4.6-4.858,3.754-7.5A3.536,3.536,0,0,0,378.62,316.633Z" transform="translate(-203.33 -160.617)" fill="none" stroke="#696969" stroke-linecap="round" stroke-linejoin="round" stroke-width="1"/>
          <path id="Path_8195" data-name="Path 8195" d="M393.356,339.25s-1.619,1.694-4.873,4.448-3.284,6.263-5.4,8.172" transform="translate(-216.937 -175.901)" fill="none" stroke="#696969" stroke-linecap="round" stroke-linejoin="round" stroke-width="1"/>
          <path id="Path_8196" data-name="Path 8196" d="M383.71,314.75s4.648.45,4.648,4.1" transform="translate(-217.252 -163.646)" fill="none" stroke="#696969" stroke-linecap="round" stroke-linejoin="round" stroke-width="1"/>
          <path id="Path_8197" data-name="Path 8197" d="M389.52,323.628a4.626,4.626,0,0,1,4.193-.065,5.588,5.588,0,0,1,2.429,2.3" transform="translate(-220.158 -167.806)" fill="none" stroke="#696969" stroke-linecap="round" stroke-linejoin="round" stroke-width="1"/>
          <path id="Path_8198" data-name="Path 8198" d="M366.735,354.81a11.2,11.2,0,0,0-.625,1.265" transform="translate(-208.449 -183.684)" fill="none" stroke="#696969" stroke-linecap="round" stroke-linejoin="round" stroke-width="1"/>
          <path id="Path_8199" data-name="Path 8199" d="M378.547,326s-2,1.23-4.6,5.5c-1.694,2.764-3.5,5.353-4.788,7.392" transform="translate(-209.974 -169.274)" fill="none" stroke="#696969" stroke-linecap="round" stroke-linejoin="round" stroke-width="1"/>
          <path id="Path_8200" data-name="Path 8200" d="M74.935,275.094c-.5.06-1,.14-1.469.235-6.877,1.315-10.166,7.147-10.861,13.245a19.678,19.678,0,0,0,2.524,12.375c2.374,3.959,6.278,6.153,9.8,9.1,3.419,2.859,6.108,7.887,11.5,7.317,8.817-.935,5.948-10.811,6.228-16.259C93.214,290.054,91.084,273.005,74.935,275.094Z" transform="translate(-56.562 -143.724)" fill="none" stroke="#696969" stroke-linecap="round" stroke-linejoin="round" stroke-width="1"/>
          <path id="Path_8201" data-name="Path 8201" d="M76.859,279.643c-.43.055-.87.125-1.31.21-6.133,1.17-9.067,6.388-9.686,11.821A17.563,17.563,0,0,0,68.112,302.7c2.124,3.539,5.6,5.5,8.752,8.127,3.054,2.549,5.448,7.037,10.256,6.533,7.867-.835,5.308-9.651,5.558-14.495C93.183,292.993,91.284,277.779,76.859,279.643Z" transform="translate(-58.201 -146.008)" fill="none" stroke="#696969" stroke-linecap="round" stroke-linejoin="round" stroke-width="1"/>
          <ellipse id="Ellipse_258" data-name="Ellipse 258" cx="7.067" cy="7.932" rx="7.067" ry="7.932" transform="translate(12.054 146.042) rotate(-28.96)" fill="none" stroke="#696969" stroke-linecap="round" stroke-linejoin="round" stroke-width="1"/>
          <path id="Path_8202" data-name="Path 8202" d="M59.122,108.107a8.107,8.107,0,0,0-4.128,1.939c-1.6,1.429-2.819,3.244-4.323,4.783,2.089.4,4.073,1.215,6.123,1.779a11.54,11.54,0,0,0,6.293.275,5.506,5.506,0,0,0,4.058-4.433l2.809-.41v-.825l-3.174.55s-1.794-2.119-2.039-2.309a7.367,7.367,0,0,0-5.618-1.35Z" transform="translate(-50.67 -60.235)" fill="none" stroke="#696969" stroke-linecap="round" stroke-linejoin="round" stroke-width="1"/>
          <path id="Path_8203" data-name="Path 8203" d="M68.074,116.894a37.275,37.275,0,0,0-7.547.835,73.632,73.632,0,0,1-8,1.1" transform="translate(-51.6 -64.679)" fill="none" stroke="#696969" stroke-linecap="round" stroke-linejoin="round" stroke-width="1"/>
          <path id="Path_8204" data-name="Path 8204" d="M57.48,116.91l2.489,1.519-1.245,1.519" transform="translate(-54.076 -64.69)" fill="none" stroke="#696969" stroke-linecap="round" stroke-linejoin="round" stroke-width="1"/>
          <path id="Path_8205" data-name="Path 8205" d="M65.22,113.6l2.209,2.624a14.455,14.455,0,0,0-1.794,2.619" transform="translate(-57.948 -63.034)" fill="none" stroke="#696969" stroke-linecap="round" stroke-linejoin="round" stroke-width="1"/>
          <path id="Path_8206" data-name="Path 8206" d="M72.815,111.39l1.794,2.9L72.4,117.463" transform="translate(-61.539 -61.928)" fill="none" stroke="#696969" stroke-linecap="round" stroke-linejoin="round" stroke-width="1"/>
          <path id="Path_8207" data-name="Path 8207" d="M167.891,39.383a8.127,8.127,0,0,0-3.694-2.674c-2.029-.72-4.2-.9-6.278-1.5.655,2,.9,4.153,1.4,6.223a11.68,11.68,0,0,0,2.8,5.668,5.488,5.488,0,0,0,5.838,1.414l1.719,2.264.725-.4-2-2.5s1-2.594,1.04-2.9a7.372,7.372,0,0,0-1.549-5.6Z" transform="translate(-104.315 -23.824)" fill="none" stroke="#696969" stroke-linecap="round" stroke-linejoin="round" stroke-width="1"/>
          <path id="Path_8208" data-name="Path 8208" d="M168.787,49.1a36.87,36.87,0,0,0-4.373-6.2,73.773,73.773,0,0,1-4.833-6.5" transform="translate(-105.145 -24.419)" fill="none" stroke="#696969" stroke-linecap="round" stroke-linejoin="round" stroke-width="1"/>
          <path id="Path_8209" data-name="Path 8209" d="M163.309,38.93l-.13,2.909-1.929-.355" transform="translate(-105.981 -25.685)" fill="none" stroke="#696969" stroke-linecap="round" stroke-linejoin="round" stroke-width="1"/>
          <path id="Path_8210" data-name="Path 8210" d="M167.6,44.1l-1.23,3.2a14.683,14.683,0,0,0-3.164-.3" transform="translate(-106.961 -28.271)" fill="none" stroke="#696969" stroke-linecap="round" stroke-linejoin="round" stroke-width="1"/>
          <path id="Path_8211" data-name="Path 8211" d="M172.288,50.05l-1.674,2.969-3.844-.4" transform="translate(-108.742 -31.247)" fill="none" stroke="#696969" stroke-linecap="round" stroke-linejoin="round" stroke-width="1"/>
          <path id="Path_8212" data-name="Path 8212" d="M326.156,49.786a8.137,8.137,0,0,0,1.9-4.143c.31-2.129.07-4.3.225-6.443-1.859,1.035-3.9,1.694-5.828,2.584a11.659,11.659,0,0,0-5,3.849,5.462,5.462,0,0,0-.25,6l-1.884,2.124.535.63,2.069-2.469s2.739.47,3.049.455a7.392,7.392,0,0,0,5.183-2.584Z" transform="translate(-183.044 -25.82)" fill="none" stroke="#696969" stroke-linecap="round" stroke-linejoin="round" stroke-width="1"/>
          <path id="Path_8213" data-name="Path 8213" d="M319.16,52.576a37.219,37.219,0,0,0,5.233-5.5,73.123,73.123,0,0,1,5.408-6" transform="translate(-184.965 -26.76)" fill="none" stroke="#696969" stroke-linecap="round" stroke-linejoin="round" stroke-width="1"/>
          <path id="Path_8214" data-name="Path 8214" d="M336.229,45.694l-2.879.44-.03-1.964" transform="translate(-192.048 -28.306)" fill="none" stroke="#696969" stroke-linecap="round" stroke-linejoin="round" stroke-width="1"/>
          <path id="Path_8215" data-name="Path 8215" d="M331.669,50.994l-3.384-.585a14.408,14.408,0,0,0-.315-3.159" transform="translate(-189.372 -29.847)" fill="none" stroke="#696969" stroke-linecap="round" stroke-linejoin="round" stroke-width="1"/>
          <path id="Path_8216" data-name="Path 8216" d="M327.064,56.678l-3.244-1.06-.36-3.849" transform="translate(-187.116 -32.107)" fill="none" stroke="#696969" stroke-linecap="round" stroke-linejoin="round" stroke-width="1"/>
          <path id="Path_8217" data-name="Path 8217" d="M406.637,164.006a8.092,8.092,0,0,0,4.548-.315c2-.75,3.809-2,5.763-2.889-1.794-1.135-3.354-2.609-5.058-3.879a11.519,11.519,0,0,0-5.763-2.534,5.5,5.5,0,0,0-5.388,2.659l-2.769-.635-.3.77,3.159.635c-.025,0,.9,2.629,1.06,2.894A7.377,7.377,0,0,0,406.637,164.006Z" transform="translate(-224.235 -83.426)" fill="none" stroke="#696969" stroke-linecap="round" stroke-linejoin="round" stroke-width="1"/>
          <path id="Path_8218" data-name="Path 8218" d="M403.81,159.73a37.229,37.229,0,0,0,7.332,1.959A73.376,73.376,0,0,1,419,163.559" transform="translate(-227.306 -86.108)" fill="none" stroke="#696969" stroke-linecap="round" stroke-linejoin="round" stroke-width="1"/>
          <path id="Path_8219" data-name="Path 8219" d="M426.4,165.909l-1.764-2.314,1.709-.965" transform="translate(-237.725 -87.558)" fill="none" stroke="#696969" stroke-linecap="round" stroke-linejoin="round" stroke-width="1"/>
          <path id="Path_8220" data-name="Path 8220" d="M418.655,164.443l-1.1-3.239a14.4,14.4,0,0,0,2.624-1.794" transform="translate(-234.179 -85.947)" fill="none" stroke="#696969" stroke-linecap="round" stroke-linejoin="round" stroke-width="1"/>
          <path id="Path_8221" data-name="Path 8221" d="M410.875,163.123l-.625-3.354,3.214-2.159" transform="translate(-230.527 -85.047)" fill="none" stroke="#696969" stroke-linecap="round" stroke-linejoin="round" stroke-width="1"/>
          <path id="Path_8222" data-name="Path 8222" d="M427.872,284.526a8.1,8.1,0,0,0,4.548-.315c2-.75,3.8-2,5.763-2.889-1.8-1.135-3.354-2.609-5.063-3.879a11.539,11.539,0,0,0-5.763-2.534,5.5,5.5,0,0,0-5.388,2.659l-2.769-.625-.3.775,3.159.635s.9,2.629,1.065,2.889A7.357,7.357,0,0,0,427.872,284.526Z" transform="translate(-234.854 -143.708)" fill="none" stroke="#696969" stroke-linecap="round" stroke-linejoin="round" stroke-width="1"/>
          <path id="Path_8223" data-name="Path 8223" d="M425,280.25a37.23,37.23,0,0,0,7.332,1.959,73.369,73.369,0,0,1,7.862,1.869" transform="translate(-237.905 -146.39)" fill="none" stroke="#696969" stroke-linecap="round" stroke-linejoin="round" stroke-width="1"/>
          <path id="Path_8224" data-name="Path 8224" d="M447.644,286.429l-1.764-2.314,1.709-.965" transform="translate(-248.349 -147.841)" fill="none" stroke="#696969" stroke-linecap="round" stroke-linejoin="round" stroke-width="1"/>
          <path id="Path_8225" data-name="Path 8225" d="M439.89,284.958l-1.11-3.244a13.6,13.6,0,0,0,2.624-1.794" transform="translate(-244.798 -146.225)" fill="none" stroke="#696969" stroke-linecap="round" stroke-linejoin="round" stroke-width="1"/>
          <path id="Path_8226" data-name="Path 8226" d="M432.11,283.643l-.62-3.354,3.209-2.159" transform="translate(-241.151 -145.33)" fill="none" stroke="#696969" stroke-linecap="round" stroke-linejoin="round" stroke-width="1"/>
          <path id="Path_8227" data-name="Path 8227" d="M333.617,389.465a8.092,8.092,0,0,0,4.548-.31c2-.75,3.8-2,5.763-2.894-1.8-1.135-3.354-2.609-5.058-3.879a11.58,11.58,0,0,0-5.768-2.534,5.5,5.5,0,0,0-5.388,2.659l-2.764-.635-.3.77,3.159.635c-.025,0,.9,2.629,1.06,2.894A7.367,7.367,0,0,0,333.617,389.465Z" transform="translate(-187.711 -196.197)" fill="none" stroke="#696969" stroke-linecap="round" stroke-linejoin="round" stroke-width="1"/>
          <path id="Path_8228" data-name="Path 8228" d="M330.78,385.19a36.756,36.756,0,0,0,7.332,1.959,72.7,72.7,0,0,1,7.867,1.874" transform="translate(-190.777 -198.88)" fill="none" stroke="#696969" stroke-linecap="round" stroke-linejoin="round" stroke-width="1"/>
          <path id="Path_8229" data-name="Path 8229" d="M353.384,391.374l-1.764-2.319,1.709-.965" transform="translate(-201.201 -200.33)" fill="none" stroke="#696969" stroke-linecap="round" stroke-linejoin="round" stroke-width="1"/>
          <path id="Path_8230" data-name="Path 8230" d="M345.63,389.9l-1.11-3.244a13.6,13.6,0,0,0,2.624-1.794" transform="translate(-197.65 -198.715)" fill="none" stroke="#696969" stroke-linecap="round" stroke-linejoin="round" stroke-width="1"/>
          <path id="Path_8231" data-name="Path 8231" d="M337.855,388.583l-.625-3.354,3.209-2.159" transform="translate(-194.004 -197.819)" fill="none" stroke="#696969" stroke-linecap="round" stroke-linejoin="round" stroke-width="1"/>
          <path id="Path_8232" data-name="Path 8232" d="M145.751,369.329a8.1,8.1,0,0,0-4.538-.435c-2.114.41-4.083,1.349-6.163,1.9,1.589,1.414,2.884,3.124,4.358,4.658a11.54,11.54,0,0,0,5.273,3.444,5.452,5.452,0,0,0,5.748-1.739l2.629,1.08.42-.71-3-1.15s-.46-2.739-.575-3A7.382,7.382,0,0,0,145.751,369.329Z" transform="translate(-92.876 -190.656)" fill="none" stroke="#696969" stroke-linecap="round" stroke-linejoin="round" stroke-width="1"/>
          <path id="Path_8233" data-name="Path 8233" d="M151.45,379.308a36.746,36.746,0,0,0-6.912-3.134,72.659,72.659,0,0,1-7.447-3.134" transform="translate(-93.896 -192.802)" fill="none" stroke="#696969" stroke-linecap="round" stroke-linejoin="round" stroke-width="1"/>
          <path id="Path_8234" data-name="Path 8234" d="M142.86,372.25l1.359,2.574-1.839.67" transform="translate(-96.542 -192.407)" fill="none" stroke="#696969" stroke-linecap="round" stroke-linejoin="round" stroke-width="1"/>
          <path id="Path_8235" data-name="Path 8235" d="M149.359,373.34l.56,3.384a15.249,15.249,0,0,0-2.879,1.34" transform="translate(-98.873 -192.952)" fill="none" stroke="#696969" stroke-linecap="round" stroke-linejoin="round" stroke-width="1"/>
          <path id="Path_8236" data-name="Path 8236" d="M156.239,375.53l.06,3.409-3.519,1.6" transform="translate(-101.744 -194.048)" fill="none" stroke="#696969" stroke-linecap="round" stroke-linejoin="round" stroke-width="1"/>
          <path id="Path_8237" data-name="Path 8237" d="M76.536,240.876a8.1,8.1,0,0,0-4.538-.44c-2.109.41-4.083,1.355-6.158,1.909,1.584,1.414,2.879,3.124,4.353,4.653a11.618,11.618,0,0,0,5.273,3.444,5.48,5.48,0,0,0,5.753-1.739l2.624,1.085.425-.715-3-1.145s-.46-2.739-.575-3a7.367,7.367,0,0,0-4.158-4.053Z" transform="translate(-58.258 -126.404)" fill="none" stroke="#696969" stroke-linecap="round" stroke-linejoin="round" stroke-width="1"/>
          <path id="Path_8238" data-name="Path 8238" d="M82.235,250.848a37.041,37.041,0,0,0-6.912-3.129,73.048,73.048,0,0,1-7.452-3.139" transform="translate(-59.273 -128.548)" fill="none" stroke="#696969" stroke-linecap="round" stroke-linejoin="round" stroke-width="1"/>
          <path id="Path_8239" data-name="Path 8239" d="M73.64,243.79,75,246.364l-1.839.675" transform="translate(-61.919 -128.153)" fill="none" stroke="#696969" stroke-linecap="round" stroke-linejoin="round" stroke-width="1"/>
          <path id="Path_8240" data-name="Path 8240" d="M80.139,244.89l.56,3.384a15.251,15.251,0,0,0-2.879,1.339" transform="translate(-64.25 -128.703)" fill="none" stroke="#696969" stroke-linecap="round" stroke-linejoin="round" stroke-width="1"/>
          <path id="Path_8241" data-name="Path 8241" d="M87.019,247.07l.065,3.414-3.524,1.6" transform="translate(-67.121 -129.794)" fill="none" stroke="#696969" stroke-linecap="round" stroke-linejoin="round" stroke-width="1"/>
          <path id="Path_8242" data-name="Path 8242" d="M319.022,175.826a8.077,8.077,0,0,0,4.543-.315c2-.75,3.809-2,5.768-2.889-1.8-1.135-3.354-2.609-5.063-3.879a11.539,11.539,0,0,0-5.763-2.534,5.5,5.5,0,0,0-5.388,2.659l-2.769-.64-.3.775,3.159.635s.9,2.629,1.065,2.889a7.357,7.357,0,0,0,4.748,3.3Z" transform="translate(-180.408 -89.338)" fill="none" stroke="#696969" stroke-linecap="round" stroke-linejoin="round" stroke-width="1"/>
          <path id="Path_8243" data-name="Path 8243" d="M316.14,171.55a37.083,37.083,0,0,0,7.332,1.954,73.92,73.92,0,0,1,7.862,1.874" transform="translate(-183.455 -92.02)" fill="none" stroke="#696969" stroke-linecap="round" stroke-linejoin="round" stroke-width="1"/>
          <path id="Path_8244" data-name="Path 8244" d="M338.744,177.729l-1.764-2.314,1.7-.965" transform="translate(-193.878 -93.47)" fill="none" stroke="#696969" stroke-linecap="round" stroke-linejoin="round" stroke-width="1"/>
          <path id="Path_8245" data-name="Path 8245" d="M330.99,176.258l-1.11-3.244a14.4,14.4,0,0,0,2.624-1.794" transform="translate(-190.327 -91.855)" fill="none" stroke="#696969" stroke-linecap="round" stroke-linejoin="round" stroke-width="1"/>
          <path id="Path_8246" data-name="Path 8246" d="M323.21,174.943l-.62-3.354,3.209-2.159" transform="translate(-186.681 -90.959)" fill="none" stroke="#696969" stroke-linecap="round" stroke-linejoin="round" stroke-width="1"/>
          <path id="Path_8247" data-name="Path 8247" d="M148.591,157.208a8.167,8.167,0,0,0-3.694-2.674c-2.029-.715-4.2-.9-6.278-1.474.655,2.024.9,4.153,1.4,6.218a11.6,11.6,0,0,0,2.8,5.643,5.5,5.5,0,0,0,5.838,1.414l1.714,2.259c.245-.13.5-.265.725-.4l-2-2.5s1-2.589,1.04-2.9A7.4,7.4,0,0,0,148.591,157.208Z" transform="translate(-94.661 -82.771)" fill="none" stroke="#696969" stroke-linecap="round" stroke-linejoin="round" stroke-width="1"/>
          <path id="Path_8248" data-name="Path 8248" d="M149.487,166.91a36.611,36.611,0,0,0-4.373-6.2,73.2,73.2,0,0,1-4.833-6.5" transform="translate(-95.492 -83.346)" fill="none" stroke="#696969" stroke-linecap="round" stroke-linejoin="round" stroke-width="1"/>
          <path id="Path_8249" data-name="Path 8249" d="M144.009,156.73l-.13,2.909-1.929-.355" transform="translate(-96.327 -84.607)" fill="none" stroke="#696969" stroke-linecap="round" stroke-linejoin="round" stroke-width="1"/>
          <path id="Path_8250" data-name="Path 8250" d="M148.3,161.9l-1.23,3.2a14.65,14.65,0,0,0-3.164-.3" transform="translate(-97.307 -87.193)" fill="none" stroke="#696969" stroke-linecap="round" stroke-linejoin="round" stroke-width="1"/>
          <path id="Path_8251" data-name="Path 8251" d="M152.988,167.85l-1.674,2.969-3.844-.4" transform="translate(-99.088 -90.169)" fill="none" stroke="#696969" stroke-linecap="round" stroke-linejoin="round" stroke-width="1"/>
        </g>
      </g>
    </g>
  </g>
</svg>
